PathFileType	4	(x/y/z)	S05_M20_T11
DataRate	CameraRate	NumFrames	NumMarkers	Units	OrigDataRate	OrigDataStartFrame	OrigNumFrames
240	240	9	50	mm	240	128	510
Frame#	Time	Sternum			R.Acromium			L.Acromium			Top.Head			R.ASIS			L.ASIS			R.PSIS			L.PSIS			R.Great.Tro			L.Great.Tro			R.Iliac.Crest			L.Iliac.Crest			V.Sacral			R.Thigh.Upper.Post			R.Thigh.Lower.Ant			R.Thigh.Lower.Post			R.Thigh.Upper.Ant			R.Knee.Lat			R.Knee.Med			R.Shank.Upper.Post			R.Shank.Lower.Ant			R.Shank.Lower.Post			R.Shank.Upper.Ant			R.Ankle.Lat			R.Ankle.Med			R.Heel.Upper			R.Heel.Med			R.Heel.Lat			R.Toe.Lat			R.Toe.Med			R.Toe.Tip			L.Thigh.Upper.Post			L.Thigh.Lower.Ant			L.Thigh.Lower.Post			L.Thigh.Upper.Ant			L.Knee.Lat			L.Shank.Upper.Post			L.Shank.Lower.Ant			L.Shank.Lower.Post			L.Shank.Upper.Ant			L.Ankle.Lat			L.Ankle.Med			L.Heel.Upper			L.Heel.Med			L.Heel.Lat			L.Toe.Lat			L.Toe.Med			L.Toe.Tip			Cervical.Spine			Back			
		X1	Y1	Z1	X2	Y2	Z2	X3	Y3	Z3	X4	Y4	Z4	X5	Y5	Z5	X6	Y6	Z6	X7	Y7	Z7	X8	Y8	Z8	X9	Y9	Z9	X10	Y10	Z10	X11	Y11	Z11	X12	Y12	Z12	X13	Y13	Z13	X14	Y14	Z14	X15	Y15	Z15	X16	Y16	Z16	X17	Y17	Z17	X18	Y18	Z18	X19	Y19	Z19	X20	Y20	Z20	X21	Y21	Z21	X22	Y22	Z22	X23	Y23	Z23	X24	Y24	Z24	X25	Y25	Z25	X26	Y26	Z26	X27	Y27	Z27	X28	Y28	Z28	X29	Y29	Z29	X30	Y30	Z30	X31	Y31	Z31	X32	Y32	Z32	X33	Y33	Z33	X34	Y34	Z34	X35	Y35	Z35	X36	Y36	Z36	X37	Y37	Z37	X38	Y38	Z38	X39	Y39	Z39	X40	Y40	Z40	X41	Y41	Z41	X42	Y42	Z42	X43	Y43	Z43	X44	Y44	Z44	X45	Y45	Z45	X46	Y46	Z46	X47	Y47	Z47	X48	Y48	Z48	X49	Y49	Z49	X50	Y50	Z50	

128	0.52917	-208.19	1256.7	307.89	-291.39	1522.7	458.09	-300.67	1527.6	126.58	-295.3	1818.4	286.19	-271.74	1009.2	439.48	-273.35	1006.5	190.65	-474.14	1023.7	359.9	-473.87	1030.1	268.56	-341.58	930.85	512.3	-370.81	932.08	121.28	-359.37	1093.5	480.35	-362.47	1084.6	145.1	-487.37	991.78	325.99	-182.33	748.35	510.61	-110.79	708.27	449.48	-153.07	664.62	490.1	-144.62	788.71	468.65	-122.45	577.78	468.26	-111.9	566.06	334.15	-125.53	326.66	454.34	-47.133	283.9	459.92	-101.01	254.96	439.08	-71.158	356.66	473.02	-29.193	176.65	442.48	-10.683	214.6	358.94	-56.676	96.963	378.15	-27.585	77.274	352.41	-36.652	75.904	416.07	104.91	148.03	484.92	139.33	179.05	371.64	177.86	226.39	422.28	-408.36	695.73	139.41	-343.52	610.71	168.03	-414.87	602.38	160.83	-329.85	698.11	144.57	-421.63	511.09	172.47	-525.41	326.18	178.61	-472.78	255.43	191.18	-544.57	257.13	201.38	-458.87	323.69	174.91	-543.67	120.64	216.93	-513.47	132.54	307.09	-612.54	73.129	270.46	-602.12	45.998	302.03	-610.29	46.951	240.72	-426.64	37.797	188.89	-404.78	44.708	309.76	-339.83	51.051	256.65	-347.55	1562.2	298.38	-471.41	1289.5	306.18
129	0.53333	-203.14	1255.7	307.89	-286.01	1521.5	458.62	-295.64	1526.8	127.14	-290	1817.4	287.21	-266.2	1008	439.3	-268.48	1005.6	190.47	-468.77	1022.9	360.27	-468.76	1029.4	268.95	-336.16	929.56	512.2	-366.42	931.54	121.3	-353.54	1092.3	480.49	-357.77	1083.9	145.21	-482.15	991	326.38	-177.88	746.21	510.45	-106.59	705.82	449.22	-148.99	662.36	489.9	-140.05	786.39	468.41	-118.29	575.82	467.83	-107.62	564.15	333.36	-115.38	324.99	454.47	-36.046	284.24	460.42	-88.952	253.89	439.34	-61.943	356.39	473.27	-14.992	177.28	443.26	2.7891	215.6	359.77	-40.175	96.841	378.92	-10.498	77.873	353.32	-19.757	76.313	416.95	119.71	152.15	486.36	153.73	183.95	373.09	190.88	232.31	423.87	-405.41	695.5	139.3	-341.05	610.09	167.88	-412.45	602.19	160.73	-326.89	697.4	144.38	-419.87	510.88	172.4	-524.48	326.41	178.71	-472.14	255.43	191.13	-543.9	257.43	201.53	-457.97	323.63	174.86	-543.51	120.84	217.09	-513.11	132.65	307.2	-612.37	73.282	270.72	-601.99	46.132	302.26	-610.22	47.147	240.96	-426.63	37.786	188.91	-404.68	44.668	309.77	-339.76	50.899	256.63	-342.42	1561.2	299.01	-466.33	1288.5	306.72
130	0.5375	-198.06	1254.7	307.9	-280.6	1520.3	459.16	-290.58	1526	127.72	-284.68	1816.4	288.23	-260.64	1006.8	439.11	-263.58	1004.7	190.3	-463.38	1022	360.65	-463.64	1028.6	269.36	-330.72	928.21	512.08	-362.01	930.99	121.32	-347.69	1091.1	480.63	-353.04	1083.2	145.33	-476.91	990.19	326.77	-173.45	744.01	510.28	-102.4	703.32	448.97	-144.94	660.04	489.7	-135.51	784.01	468.18	-114.14	573.83	467.42	-103.33	562.21	332.59	-105.34	323.42	454.62	-25.121	284.68	460.92	-77.053	252.96	439.64	-52.843	356.19	473.52	-1.0351	178.09	444.04	16.029	216.74	360.6	-23.952	96.972	379.68	6.2699	78.723	354.21	-3.169	76.961	417.81	134.18	156.34	487.75	167.8	188.91	374.52	203.58	238.21	425.44	-402.43	695.26	139.2	-338.56	609.45	167.72	-410	601.99	160.63	-323.91	696.68	144.18	-418.08	510.67	172.34	-523.53	326.65	178.82	-471.49	255.44	191.09	-543.21	257.75	201.67	-457.05	323.57	174.82	-543.35	121.04	217.26	-512.73	132.76	307.31	-612.19	73.444	270.98	-601.86	46.28	302.49	-610.15	47.356	241.21	-426.63	37.777	188.93	-404.58	44.629	309.77	-339.69	50.749	256.61	-337.26	1560.2	299.66	-461.21	1287.5	307.28
131	0.54167	-192.95	1253.6	307.92	-275.18	1519	459.72	-285.5	1525.2	128.31	-279.35	1815.3	289.27	-255.07	1005.5	438.93	-258.68	1003.8	190.13	-457.98	1021.1	361.04	-458.49	1027.9	269.77	-325.27	926.81	511.96	-357.58	930.41	121.33	-341.82	1089.8	480.78	-348.29	1082.4	145.46	-471.65	989.36	327.16	-169.03	741.76	510.11	-98.229	700.77	448.72	-140.89	657.67	489.5	-130.99	781.59	467.93	-109.98	571.82	467.02	-99.025	560.26	331.82	-95.411	321.97	454.81	-14.366	285.21	461.42	-65.325	252.17	439.96	-43.86	356.05	473.79	12.663	179.04	444.82	29.021	218.01	361.43	-8.0338	97.335	380.44	22.692	79.799	355.09	13.087	77.826	418.67	148.31	160.56	489.12	181.51	193.9	375.92	215.95	244.08	426.98	-399.44	695	139.1	-336.05	608.8	167.57	-407.53	601.78	160.54	-320.91	695.94	143.99	-416.26	510.45	172.28	-522.57	326.88	178.93	-470.82	255.44	191.05	-542.5	258.08	201.82	-456.12	323.5	174.77	-543.19	121.25	217.43	-512.35	132.88	307.41	-612	73.617	271.25	-601.73	46.445	302.73	-610.08	47.578	241.46	-426.64	37.768	188.94	-404.47	44.592	309.78	-339.63	50.599	256.58	-332.09	1559.2	300.32	-456.08	1286.5	307.85
132	0.54583	-187.82	1252.5	307.95	-269.73	1517.8	460.29	-280.4	1524.4	128.91	-274	1814.2	290.32	-249.48	1004.2	438.76	-253.75	1002.8	189.97	-452.55	1020.2	361.44	-453.32	1027.1	270.19	-319.8	925.37	511.84	-353.13	929.81	121.34	-335.94	1088.5	480.94	-343.51	1081.6	145.6	-466.37	988.5	327.56	-164.61	739.48	509.92	-94.05	698.19	448.46	-136.83	655.28	489.29	-126.48	779.14	467.68	-105.78	569.81	466.63	-94.697	558.3	331.08	-85.608	320.61	455.02	-3.7882	285.81	461.92	-53.783	251.52	440.31	-34.997	355.97	474.06	26.086	180.13	445.6	41.75	219.39	362.26	7.5527	97.907	381.2	38.741	81.074	355.97	28.987	78.883	419.51	162.09	164.79	490.44	194.87	198.89	377.28	227.99	249.88	428.49	-396.42	694.73	139	-333.51	608.13	167.41	-405.04	601.55	160.45	-317.89	695.19	143.8	-414.41	510.22	172.22	-521.58	327.13	179.04	-470.14	255.45	191	-541.75	258.43	201.95	-455.16	323.44	174.73	-543.02	121.47	217.6	-511.96	133	307.52	-611.79	73.801	271.52	-601.59	46.628	302.96	-610	47.815	241.71	-426.64	37.761	188.96	-404.37	44.557	309.78	-339.56	50.449	256.56	-326.9	1558.1	301.01	-450.92	1285.4	308.43
133	0.55	-182.66	1251.4	307.99	-264.26	1516.4	460.88	-275.29	1523.6	129.53	-268.64	1813.1	291.39	-243.89	1002.8	438.58	-248.81	1001.8	189.82	-447.12	1019.2	361.84	-448.13	1026.3	270.61	-314.31	923.88	511.71	-348.65	929.2	121.34	-330.06	1087.2	481.1	-338.71	1080.7	145.75	-461.08	987.62	327.96	-160.18	737.19	509.73	-89.855	695.61	448.19	-132.75	652.88	489.08	-121.97	776.68	467.42	-101.55	567.81	466.26	-90.334	556.35	330.36	-75.936	319.35	455.25	6.6057	286.48	462.43	-42.44	250.98	440.7	-26.257	355.94	474.35	39.221	181.33	446.38	54.203	220.86	363.08	22.782	98.662	381.96	54.394	82.52	356.84	44.51	80.107	420.36	175.52	169.01	491.72	207.86	203.86	378.6	239.7	255.59	429.94	-393.37	694.44	138.91	-330.94	607.45	167.24	-402.51	601.31	160.36	-314.85	694.43	143.6	-412.52	509.98	172.16	-520.56	327.37	179.16	-469.43	255.46	190.96	-540.97	258.78	202.07	-454.18	323.38	174.68	-542.84	121.7	217.77	-511.57	133.13	307.63	-611.55	73.998	271.78	-601.45	46.832	303.2	-609.93	48.069	241.97	-426.64	37.755	188.97	-404.26	44.523	309.79	-339.49	50.299	256.53	-321.69	1557	301.7	-445.74	1284.3	309.03
134	0.55417	-177.47	1250.3	308.05	-258.77	1515.1	461.48	-270.16	1522.7	130.17	-263.26	1811.9	292.47	-238.28	1001.4	438.41	-243.86	1000.8	189.68	-441.67	1018.2	362.24	-442.92	1025.5	271.04	-308.8	922.37	511.59	-344.16	928.56	121.33	-324.18	1085.8	481.28	-333.88	1079.9	145.91	-455.78	986.72	328.36	-155.72	734.88	509.52	-85.632	693.04	447.92	-128.63	650.47	488.85	-117.45	774.22	467.14	-97.261	565.84	465.9	-85.925	554.41	329.66	-66.404	318.19	455.5	16.809	287.2	462.94	-31.308	250.55	441.11	-17.643	355.95	474.65	52.052	182.62	447.16	66.365	222.39	363.9	37.629	99.572	382.73	69.626	84.103	357.7	59.634	81.468	421.2	188.59	173.19	492.94	220.47	208.76	379.87	251.08	261.17	431.34	-390.3	694.14	138.81	-328.35	606.76	167.07	-399.96	601.05	160.28	-311.78	693.65	143.4	-410.6	509.74	172.11	-519.52	327.62	179.27	-468.71	255.48	190.92	-540.16	259.16	202.19	-453.17	323.31	174.64	-542.65	121.94	217.94	-511.16	133.27	307.73	-611.3	74.211	272.04	-601.31	47.058	303.43	-609.85	48.341	242.22	-426.64	37.749	188.98	-404.15	44.491	309.79	-339.43	50.149	256.5	-316.45	1555.8	302.42	-440.53	1283.2	309.63
135	0.55833	-172.26	1249.1	308.12	-253.25	1513.7	462.1	-265.02	1521.8	130.82	-257.86	1810.8	293.56	-232.67	1000	438.25	-238.89	999.76	189.55	-436.21	1017.2	362.65	-437.7	1024.6	271.47	-303.27	920.82	511.46	-339.65	927.91	121.32	-318.32	1084.4	481.45	-329.02	1079	146.07	-450.46	985.8	328.76	-151.23	732.58	509.31	-81.366	690.49	447.63	-124.45	648.08	488.62	-112.91	771.78	466.85	-92.9	563.9	465.55	-81.458	552.49	329	-57.019	317.12	455.76	26.817	287.95	463.46	-20.399	250.22	441.54	-9.1562	355.99	474.95	64.565	183.97	447.94	78.226	223.97	364.71	52.07	100.61	383.5	84.416	85.79	358.56	74.339	82.935	422.03	201.3	177.29	494.12	232.69	213.56	381.09	262.14	266.59	432.67	-387.21	693.82	138.73	-325.73	606.06	166.9	-397.39	600.79	160.2	-308.69	692.86	143.2	-408.63	509.49	172.05	-518.45	327.87	179.38	-467.96	255.49	190.87	-539.31	259.54	202.29	-452.14	323.25	174.59	-542.45	122.18	218.1	-510.75	133.41	307.82	-611.04	74.443	272.3	-601.16	47.31	303.66	-609.77	48.632	242.46	-426.64	37.742	188.99	-404.04	44.461	309.79	-339.36	49.998	256.47	-311.18	1554.6	303.15	-435.29	1282.1	310.25
136	0.5625	-167.01	1247.9	308.2	-247.72	1512.3	462.73	-259.87	1520.9	131.49	-252.44	1809.6	294.66	-227.06	998.57	438.09	-233.91	998.68	189.42	-430.74	1016.2	363.07	-432.45	1023.8	271.91	-297.72	919.24	511.34	-335.11	927.24	121.3	-312.46	1083	481.64	-324.14	1078.1	146.25	-445.14	984.86	329.16	-146.69	730.3	509.08	-77.044	687.99	447.33	-120.21	645.72	488.37	-108.35	769.37	466.55	-88.454	562.01	465.22	-76.925	550.59	328.38	-47.79	316.12	456.04	36.623	288.73	463.98	-9.7263	249.97	441.99	-0.7996	356.06	475.26	76.747	185.37	448.71	89.773	225.56	365.51	66.085	101.74	384.28	98.744	87.547	359.41	88.603	84.476	422.86	213.64	181.29	495.24	244.53	218.23	382.25	272.86	271.83	433.93	-384.09	693.49	138.64	-323.09	605.34	166.72	-394.78	600.5	160.12	-305.58	692.06	142.99	-406.63	509.23	171.99	-517.35	328.13	179.49	-467.19	255.51	190.82	-538.44	259.94	202.39	-451.08	323.19	174.54	-542.23	122.44	218.26	-510.33	133.57	307.92	-610.76	74.696	272.54	-601.02	47.589	303.88	-609.68	48.945	242.7	-426.64	37.735	189	-403.93	44.433	309.8	-339.29	49.847	256.44	-305.89	1553.4	303.9	-430.03	1280.9	310.88
